@startuml

entity "User" as User {
 id: int required
 login: String required
 password_hash: String required
 firstName: String 
 lastName: String required
 email: String
 imageUrl: String
 activated: boolean
 langKey: String
 activation_key: String
 resetKey: String
 createdBy: String required
 createdDate: Date
 lastModifiedBy: String
 lastModifiedDate: Date
 resetDate: Date
}

entity "Authority" as Authority {
 name: String required
}

entity "Client" as Client {
 id: int required
 birthdate: Date
}

entity "PurchaseCommand" as PurchaseCommand {
 id: int
 expeditionDate: Date
 status: PurchaseCommandStatus
}

entity "PurchaseCommandLine" as PurchaseCommandLine {
 id: int required
 quantity: int required
 unitPrice : float required
}

entity "Book" as Book {
  id: int required
  title: String required
  subtitle: String
  imageUri: String
  price: float required
  isbn: String
  format: BookFormat required
  stock: int required
  description: String
  pageCount: int
  language: Language required
  publishDate: Date required
}

entity "Address" as Address {
 id: int required
 street: String required
 postalcode: int required
 city: String required
 country: String required
}

entity "Author" as Author {
  id: int required
  name: String required
  description: String
}


entity "Publisher" as Publisher {
  id: int required
  name: String required
  description: String
}

entity "Award" as Award {
 id: int required
 name: String required
 description: String
}

entity "Award_Book" as Award_Book {
 year: Date required
}

entity "BookCategory" as BookCategory{
  id: int required
  name: String required
  description: String
}

entity "Review" as Review{
  id: int required
  rating: int required
  comment: String
}

package Enum {

enum PurchaseCommandStatus{
    DRAFT        // Brouillon
    ORDERED                // Commandé
    PREPARING              // Préparation de la commande
    SHIPPED                // En cours de livraison
    DELIVERED              // Livré
    CANCELLED              // Commande annulée
    RETURN_REQUESTED       // Demande de retour
    RETURNED               // Produit retourné
    REFUNDED               // Remboursement effectué
    FAILED_PAYMENT          // Échec du paiement
}

enum BookFormat{
  POCKET  // Poche
  PAPERBACK // Broché 
  HARDCOVER // Relié 
}

enum Language{
  FR
  EN
}

}

PurchaseCommand "*" --> "1 (deliveryAddress)" Address
Client "*" --> "1" Address

Client "1" <--> "*" Review
Review "*" <--> "1" Book

User "*" --> "*" Authority
User "1" <-- "1" Client
Client "1" --> "*" PurchaseCommand
PurchaseCommand "1" --> "*" PurchaseCommandLine
PurchaseCommandLine "*" --> "1" Book
Book "*" <--> "1" Author
Book "*" <--> "1" Publisher
Book "*" <--> "*" BookCategory
Book "1" <--> "*" Award_Book
Award_Book "*" <--> "1" Award

@enduml